<svg xmlns="http://www.w3.org/2000/svg" width="108" height="48" viewBox="0 0 108 48">
    <g fill="none" fill-rule="evenodd">
        <path fill="#F0F6FF" fill-rule="nonzero" d="M101.412 27l-6.9-8.5c-3.7-4.6-9.4-7.3-15.3-7.3h-64.5l-9.5-9.5h-4.4l9.2 12.8-4 7.5 2.9 1.2 5.8-6.4 37.7 9.2 4.6 7c3.3 4.9 8.8 7.9 14.7 7.9h23c7.2-.1 11.1-8.4 6.7-13.9z"/>
        <path fill="#F0F6FF" fill-rule="nonzero" d="M101.412 27.2l-6.9-8.5c-3.7-4.6-9.4-7.3-15.3-7.3h-64.5l-9.5-9.5h-4.4l9.2 12.8-4 7.6 2.9 1.2 5.8-6.4 37.7 9.1 4.6 7c3.3 4.9 8.8 7.9 14.7 7.9h23c7.2 0 11.1-8.3 6.7-13.9z"/>
        <path fill="#D4E4FF" fill-rule="nonzero" d="M103.212 33.4c-.4 4-3.8 7.6-8.5 7.6h-23c-5.9 0-11.4-2.9-14.7-7.8l-4.7-7-37.7-9.1-5.8 6.4-2.8-1.2 4.1-7.6-9.2-12.8h4.4l7.7 7.7 1.8 1.8h4.1l36.9 8.9 4.7 7c3.3 4.9 8.8 7.8 14.7 7.8h23c1.9 0 3.6-.6 5-1.7z"/>
        <path fill="#FFF" fill-rule="nonzero" d="M102.512 29.1h-11.2c-7 0-13.6-3.5-17.4-9.3l-5.5-8.4h10.9c5.9 0 11.6 2.7 15.3 7.3l6.9 8.5c.4.7.7 1.3 1 1.9z"/>
        <g stroke="#333398" stroke-linecap="round" stroke-linejoin="round" stroke-width="1.5">
            <path d="M14.712 17.1l37.7 9.1 4.6 7c3.3 4.9 8.8 7.9 14.7 7.9h23c7.1 0 11.1-8.3 6.6-13.8l-6.9-8.5c-3.7-4.6-9.4-7.3-15.3-7.3h-64.4"/>
            <path d="M14.712 11.4l-9.5-9.5h-4.4l9.2 12.8-4 7.6 2.9 1.2 5.8-6.4M52.812 26.7l-3.6-5.5M68.012 11.4V.9M28.912.9h78.3M68.312 11.5l5.5 8.3c3.9 5.8 10.4 9.3 17.4 9.3M56.412 47.1h39c3.3 0 6-1.4 7.9-3.4M90.812 41.1l3.7 6M68.012 40.7v6.4"/>
        </g>
    </g>
</svg>
