<?xml version="1.0" encoding="UTF-8"?>
<svg width="100px" height="45px" viewBox="0 0 100 45" version="1.1" xmlns="http://www.w3.org/2000/svg" xmlns:xlink="http://www.w3.org/1999/xlink">
    <!-- Generator: Sketch 52.2 (67145) - http://www.bohemiancoding.com/sketch -->
    <title>ALS_logo (6)</title>
    <desc>Created with Sketch.</desc>
    <g id="Page-1" stroke="none" stroke-width="1" fill="none" fill-rule="evenodd">
        <g id="ALS_logo-(6)" transform="translate(0.000000, -0.141134)" fill-rule="nonzero">
            <g id="ALS_logo_svg">
                <g id="ALS_logo-4" transform="translate(0.000000, 0.141134)">
                    <polygon id="Shape" fill="#4A50E1" points="0 0 100 0 100 34 0 34"></polygon>
                    <path d="M80.649,22.75 L80.048,27.01 L79.799,27.01 L79.462,22.875 L78.811,4 L77,4 L78.499,30 L81.118,30 L83.6,4 L81.528,4 L80.649,22.75 Z M67.569,4 L64,4 L64,30 L67.439,30 C69.415,30 70,28.84 70,27 L70,6.766 C70,4.924 69.545,4 67.569,4 Z M68,27.462 C68,28.785 68.06,29 67,29 L66,29 L66,5 L67,5 C68.06,5 68,5.216 68,6.538 L68,27.462 Z M72,30 L76,30 L76,29 L74,29 L74,16 L75.341,16 L75.341,15 L74,15 L74,5 L76,5 L76,4 L72,4 L72,30 Z M18,4 L16,30 L17.525,30 L18.261,22 L20,22 L20.227,30 L22.302,30 L20.85,4 L18,4 Z M18.332,21 L18.932,9.255 L19.23,6.099 L19.8,6.099 L20,9.255 L20,21 L18.332,21 Z M43,4 L41,4 L41,30 L45,30 L45,29 L43,29 L43,4 Z M46,30 L50,30 L50,29 L48,29 L48,16 L49.326,16 L49.326,15 L48,15 L48,5 L49.989,5 L49.989,4 L46,4 L46,30 Z M30.713,5 L32.379,5 L32.379,30 L34.24,30 L34.24,5 L35.841,5 L35.841,4 L30.713,4 L30.713,5 Z M36.617,27.939 C35.948,27.939 35.412,28.472 35.412,29.131 C35.412,29.794 35.948,30.324 36.617,30.324 C37.285,30.324 37.822,29.793 37.822,29.131 C37.822,28.472 37.285,27.939 36.617,27.939 Z M55.709,4 L51,4 L51,30 L54.94,30 C56.189,30 56.985,28.999 57,27.906 L57,17.631 C57,16.376 56.781,16.062 56.334,15.809 L56.334,15.245 C56.885,14.97 57,14.689 57,13.812 L57,5.582 C57,4.661 56.652,4 55.709,4 Z M55,28.104 C54.988,28.793 54.943,28.936 54.39,28.936 L52.987,28.936 L53,16 L54.406,16 C54.957,16 55,16.3 55,17.422 L55,28.104 Z M55,13.641 C55,14.732 55.028,14.944 54.449,15 L53,15 L52.986,5 L54.433,5 C54.899,5 55,5.216 55,5.792 L55,13.641 Z M27.594,4 L24,4 L24,30 L26,30 L26,18 L27.331,18 C27.941,18 28,18.283 28,19 L28,30 L30,30 L29.989,20.11 C29.989,18.685 30.062,18.316 29.265,17.851 L29.265,17.248 C29.795,17.191 30,17.123 30,15.714 L30,7 C30,5.158 29.555,4 27.594,4 Z M28,16 C28,16.805 28.02,17 27.364,17 L26,17 L26,5 L26.84,4.984 C27.883,5 28,5.677 28,7 L28,16 Z M59,30 L63,30 L63,29 L61,29 L61,16 L62.336,16 L62.336,15 L61,15 L61,5 L63,5 L63,4 L59,4 L59,30 Z" id="Shape" fill="#FFFFFF"></path>
                    <path d="M3.502,39.877 C3.502,39.139 2.944,38.797 2.404,38.797 C1.918,38.797 1.404,39.058 1.017,39.373 L0.612,38.878 C1.08,38.356 1.846,38.05 2.53,38.05 C3.511,38.05 4.439,38.617 4.439,39.877 C4.439,41.417 2.666,43.118 1.648,44.055 L4.529,44.055 L4.529,44.847 L0.54,44.847 L0.54,44.199 C1.53,43.172 3.502,41.443 3.502,39.877 Z M8.389,45 C6.526,45 6.003,43.037 6.003,41.524 C6.003,40.012 6.525,38.049 8.389,38.049 C10.253,38.049 10.775,40.012 10.775,41.524 C10.774,43.037 10.252,45 8.389,45 Z M8.389,38.725 C7.12,38.725 6.886,40.562 6.886,41.525 C6.886,42.489 7.12,44.335 8.389,44.335 C9.659,44.335 9.893,42.489 9.893,41.525 C9.893,40.562 9.658,38.725 8.389,38.725 Z M12.271,39.355 L14.215,38.203 L14.782,38.203 L14.782,44.19 L15.979,44.406 L15.979,44.847 L12.693,44.847 L12.693,44.406 L13.89,44.19 L13.89,39.193 C13.899,39.184 12.432,39.734 12.432,39.734 L12.271,39.355 Z M19.918,45 C18.748,45 17.657,44.369 17.657,43.199 C17.657,42.326 18.522,41.575 19.198,41.27 C18.505,40.91 17.718,40.589 17.718,39.679 C17.718,38.635 18.883,38.001 19.918,38.001 C20.971,38.001 22.193,38.599 22.193,39.679 C22.193,40.579 21.38,41.479 20.647,41.234 C21.488,41.515 22.335,42.254 22.335,43.199 C22.334,44.334 21.043,45 19.918,45 Z M19.864,41.241 C19.122,41.613 18.45,42.416 18.45,43.182 C18.45,43.919 19.198,44.343 19.918,44.343 C20.638,44.343 21.551,43.929 21.551,43.182 C21.551,42.268 20.854,41.636 19.864,41.241 Z M19.918,38.519 C19.288,38.519 18.501,39.031 18.501,39.688 C18.501,40.363 19.45,41.227 20.008,41.479 C20.584,41.182 21.479,40.417 21.479,39.688 C21.479,39.067 20.521,38.519 19.918,38.519 Z" id="Shape" fill="#4A50E1"></path>
                </g>
            </g>
        </g>
    </g>
</svg>