<svg xmlns="http://www.w3.org/2000/svg" width="61" height="62" viewBox="0 0 61 62">
    <g fill="none" fill-rule="evenodd">
        <path fill="#F0F6FF" fill-rule="nonzero" d="M30.8 1.6c-16 0-29 13-29 29 0 5.3 1.4 10.2 3.9 14.4L1.2 60.3l15.3-4.5c4.3 2.4 9.2 3.9 14.4 3.9 16 0 29-13 29-29 0-16.1-13-29.1-29.1-29.1z"/>
        <path fill="#D4E4FF" fill-rule="nonzero" d="M57.2 18.4c0 2.6-.3 5.2-.8 7.9C52.6 44.4 36.7 56.9 19 57.1c1.9.9 3.9 1.5 6 2 15.7 3.3 31.1-6.8 34.3-22.5 1.3-6.4.4-12.7-2.1-18.2z"/>
        <path fill="#FFF" fill-rule="nonzero" d="M4.5 42.9c0-2.6.3-5.2.8-7.9C9.1 16.9 25 4.4 42.7 4.2c-1.9-.9-3.9-1.5-6-2C21-1 5.7 9 2.4 24.7 1.1 31.1 2 37.4 4.5 42.9z"/>
        <g fill-rule="nonzero">
            <path fill="#FFF" d="M43 18.8l-7.5 16.8-9.3-9.2z"/>
            <path fill="#D4E4FF" d="M35.5 35.6l-16.8 7.6 7.5-16.8z"/>
        </g>
        <g stroke="#333398" stroke-linecap="round" stroke-linejoin="round" stroke-width="1.5">
            <path d="M43 18.5L26.2 26l-7.5 16.8 16.8-7.5zM26.2 26l9.3 9.3M30.8 52.2v7.5M30.8 1.6v7.6M52.3 30.7h7.6M1.8 30.7h7.5"/>
            <g>
                <path d="M48.9 48.7l2.5 2.5M10.3 10.1l2.5 2.5M48.9 12.6l2.5-2.5M10.3 51.2l2.5-2.5"/>
            </g>
            <path d="M30.8 1.6c-16 0-29 13-29 29 0 5.3 1.4 10.2 3.9 14.4L1.2 60.3l15.3-4.5c4.3 2.4 9.2 3.9 14.4 3.9 16 0 29-13 29-29 0-16.1-13-29.1-29.1-29.1z"/>
        </g>
    </g>
</svg>
