<svg xmlns="http://www.w3.org/2000/svg" width="22px" height="16px" viewBox="0 0 30 22">
    <path fill="#ff0000" fill-rule="evenodd" d="M29.482 3.878c-.368-1.602-1.673-2.784-3.244-2.96C22.518.5 18.753.497 15.005.5 11.256.498 7.49.5 3.77.917 2.2 1.094.896 2.276.529 3.878.006 6.16 0 8.651 0 11c0 2.35 0 4.84.523 7.122.366 1.602 1.67 2.784 3.242 2.96 3.72.418 7.485.42 11.234.418 3.75.002 7.514 0 11.233-.418 1.57-.176 2.876-1.358 3.243-2.96C29.998 15.84 30 13.349 30 11c0-2.35.004-4.84-.518-7.122zM11.129 15.676V5.713l9.537 4.997-9.537 4.966z"/>
</svg>
