<svg width="241" height="68" viewBox="0 0 241 68" fill="none" xmlns="http://www.w3.org/2000/svg">
<path d="M27.5191 47.6336C22.415 47.6336 17.8167 46.6085 13.7242 44.5583C9.67769 42.5082 6.48186 39.6728 4.13672 36.0523C1.83757 32.4318 0.687988 28.3533 0.687988 23.8168C0.687988 19.2803 1.83757 15.2017 4.13672 11.5812C6.48186 7.96075 9.67769 5.12541 13.7242 3.07524C17.8167 1.02508 22.415 0 27.5191 0C32.6233 0 37.1986 1.02508 41.2451 3.07524C45.3376 5.12541 48.5334 7.96075 50.8326 11.5812C53.1777 15.2017 54.3503 19.2803 54.3503 23.8168C54.3503 28.3533 53.1777 32.4318 50.8326 36.0523C48.5334 39.6728 45.3376 42.5082 41.2451 44.5583C37.1986 46.6085 32.6233 47.6336 27.5191 47.6336ZM27.5191 36.9029C29.9563 36.9029 32.1634 36.3577 34.1407 35.2672C36.118 34.1767 37.6814 32.6499 38.831 30.687C39.9806 28.6805 40.5554 26.3904 40.5554 23.8168C40.5554 21.2432 39.9806 18.9749 38.831 17.012C37.6814 15.0055 36.118 13.4569 34.1407 12.3664C32.1634 11.2759 29.9563 10.7306 27.5191 10.7306C25.082 10.7306 22.8749 11.2759 20.8976 12.3664C18.9203 13.4569 17.3569 15.0055 16.2073 17.012C15.0577 18.9749 14.4829 21.2432 14.4829 23.8168C14.4829 26.3904 15.0577 28.6805 16.2073 30.687C17.3569 32.6499 18.9203 34.1767 20.8976 35.2672C22.8749 36.3577 25.082 36.9029 27.5191 36.9029Z" fill="#0E0E0E"/>
<path d="M73.3669 15.5071C74.7004 13.8931 76.4247 12.6936 78.5399 11.9084C80.7012 11.0796 83.1613 10.6652 85.9202 10.6652V21.8539C84.7247 21.723 83.736 21.6576 82.9543 21.6576C80.1494 21.6576 77.9422 22.3773 76.3328 23.8168C74.7693 25.2563 73.9876 27.4591 73.9876 30.4253V46.7176H60.8824V11.2541H73.3669V15.5071Z" fill="#0E0E0E"/>
<path d="M91.3283 11.2541H104.433V46.7176H91.3283V11.2541Z" fill="#0E0E0E"/>
<path d="M153.163 11.2541V40.2399C153.163 46.8266 151.277 51.7557 147.507 55.0273C143.736 58.3424 138.31 60 131.229 60C127.55 60 124.101 59.6074 120.882 58.8222C117.664 58.0371 114.928 56.8811 112.674 55.3544L117.434 46.6521C118.951 47.8299 120.859 48.7459 123.159 49.4002C125.504 50.0981 127.803 50.4471 130.056 50.4471C133.505 50.4471 136.034 49.7274 137.643 48.2879C139.253 46.8484 140.057 44.711 140.057 41.8757V40.6979C137.528 43.4896 133.827 44.8855 128.952 44.8855C125.642 44.8855 122.584 44.1876 119.779 42.7917C116.974 41.3522 114.744 39.3457 113.088 36.7721C111.433 34.1549 110.605 31.145 110.605 27.7426C110.605 24.3839 111.433 21.4177 113.088 18.8441C114.744 16.2268 116.974 14.2203 119.779 12.8244C122.584 11.385 125.642 10.6652 128.952 10.6652C134.286 10.6652 138.195 12.301 140.678 15.5725V11.2541H153.163ZM132.056 35.0055C134.401 35.0055 136.333 34.3293 137.85 32.9771C139.414 31.6249 140.195 29.88 140.195 27.7426C140.195 25.6052 139.437 23.8822 137.919 22.5736C136.402 21.2214 134.447 20.5453 132.056 20.5453C129.665 20.5453 127.688 21.2214 126.124 22.5736C124.607 23.8822 123.848 25.6052 123.848 27.7426C123.848 29.88 124.63 31.6249 126.193 32.9771C127.757 34.3293 129.711 35.0055 132.056 35.0055Z" fill="#0E0E0E"/>
<path d="M161.583 11.2541H174.688V46.7176H161.583V11.2541Z" fill="#0E0E0E"/>
<path d="M225.753 68L202.024 37.0472L194.866 46.294H180.688L194.866 28.647L181.101 11H195.829L202.437 19.9212L209.319 11H223.153L209.388 28.1912L240.688 68H225.753Z" fill="#017AC3"/>
</svg>
