<svg xmlns="http://www.w3.org/2000/svg" width="22px" height="20px" viewBox="0 0 22 20">
    <path fill="#0088cc" fill-rule="evenodd" d="M.937 9.628l4.807 1.794 1.861 5.983c.12.384.588.525.899.271l2.68-2.184a.8.8 0 0 1 .974-.028l4.833 3.51c.333.241.804.059.887-.343l3.54-17.03a.567.567 0 0 0-.758-.644L.932 8.567a.567.567 0 0 0 .005 1.06zm6.368.839L16.7 4.68c.169-.103.343.125.198.26l-7.754 7.207a1.607 1.607 0 0 0-.498.961l-.264 1.958c-.035.261-.402.287-.474.034l-1.016-3.57a.946.946 0 0 1 .413-1.063z"/>
</svg>
